<?xml version="1.0" encoding="UTF-8" standalone="no"?>
<!DOCTYPE svg PUBLIC "-//W3C//DTD SVG 20010904//EN"
              "http://www.w3.org/TR/2001/REC-SVG-20010904/DTD/svg10.dtd">

<svg xmlns="http://www.w3.org/2000/svg"
     width="7.94444in" height="7.94444in"
     viewBox="0 0 715 715">
  <path id="Select #2"
        fill="#ffffff" stroke="black" stroke-width="1"
        d="M 35.00,198.00
           C 42.96,179.53 63.85,148.96 76.60,133.00
             123.05,74.85 183.69,35.56 255.00,15.00
             255.00,15.00 289.00,6.46 289.00,6.46
             289.00,6.46 335.00,1.00 335.00,1.00
             335.00,1.00 372.00,1.00 372.00,1.00
             372.00,1.00 382.00,1.91 382.00,1.91
             410.14,3.88 438.19,9.07 465.00,18.00
             504.76,31.25 536.42,47.94 570.00,73.13
             570.00,73.13 592.00,91.05 592.00,91.05
             596.28,94.85 599.33,96.37 601.00,102.00
             601.00,102.00 580.00,99.28 580.00,99.28
             580.00,99.28 544.00,95.17 544.00,95.17
             544.00,95.17 488.00,92.00 488.00,92.00
             488.00,92.00 472.00,91.00 472.00,91.00
             472.00,91.00 445.00,91.00 445.00,91.00
             445.00,91.00 435.00,91.96 435.00,91.96
             435.00,91.96 419.00,91.96 419.00,91.96
             419.00,91.96 409.00,93.00 409.00,93.00
             409.00,93.00 400.00,93.00 400.00,93.00
             400.00,93.00 362.00,96.84 362.00,96.84
             321.89,101.13 282.13,108.69 243.00,118.47
             200.38,129.13 147.07,147.03 107.00,164.86
             107.00,164.86 55.00,189.42 55.00,189.42
             48.44,192.29 42.04,196.68 35.00,198.00 Z
           M 5.00,286.00
           C 7.03,270.93 14.15,247.39 19.58,233.00
             21.04,229.12 25.24,217.19 27.70,214.65
             29.69,212.58 35.19,210.71 38.00,209.60
             38.00,209.60 60.00,201.31 60.00,201.31
             88.95,190.97 118.16,182.05 148.00,174.63
             187.11,164.89 226.95,158.84 267.00,154.83
             267.00,154.83 296.00,152.00 296.00,152.00
             296.00,152.00 305.00,152.00 305.00,152.00
             305.00,152.00 317.00,151.00 317.00,151.00
             317.00,151.00 336.00,150.00 336.00,150.00
             336.00,150.00 374.00,150.00 374.00,150.00
             374.00,150.00 386.00,150.96 386.00,150.96
             386.00,150.96 397.00,150.96 397.00,150.96
             397.00,150.96 407.00,151.91 407.00,151.91
             407.00,151.91 433.00,153.83 433.00,153.83
             471.52,157.56 509.17,163.22 547.00,171.58
             578.42,178.51 615.84,188.93 646.00,199.95
             646.00,199.95 670.00,208.85 670.00,208.85
             673.08,210.16 678.29,212.04 680.51,214.39
             683.24,217.30 688.06,230.61 689.68,235.00
             694.45,247.89 702.13,271.76 704.00,285.00
             704.00,285.00 689.00,285.00 689.00,285.00
             689.00,285.00 673.00,286.00 673.00,286.00
             673.00,286.00 5.00,286.00 5.00,286.00 Z
           M 5.00,427.00
           C 5.00,427.00 368.00,427.00 368.00,427.00
             368.00,427.00 550.00,427.00 550.00,427.00
             550.00,427.00 565.00,428.00 565.00,428.00
             565.00,428.00 704.00,428.00 704.00,428.00
             701.93,442.65 693.99,467.03 688.40,481.00
             686.68,485.31 682.35,497.53 679.37,500.21
             677.22,502.14 669.04,504.94 666.00,506.00
             666.00,506.00 642.00,514.67 642.00,514.67
             610.82,525.06 579.16,534.84 547.00,541.79
             510.40,549.70 474.25,555.56 437.00,559.17
             437.00,559.17 412.00,561.09 412.00,561.09
             412.00,561.09 401.00,562.00 401.00,562.00
             401.00,562.00 397.00,562.00 397.00,562.00
             397.00,562.00 380.00,563.00 380.00,563.00
             380.00,563.00 331.00,563.00 331.00,563.00
             331.00,563.00 319.00,562.04 319.00,562.04
             319.00,562.04 308.00,562.04 308.00,562.04
             308.00,562.04 283.00,560.09 283.00,560.09
             250.85,557.84 218.69,553.37 187.00,547.39
             187.00,547.39 154.00,540.21 154.00,540.21
             123.08,533.53 92.96,523.69 63.00,513.67
             63.00,513.67 39.00,504.81 39.00,504.81
             35.80,503.57 30.18,502.03 27.97,499.53
             25.60,496.85 21.10,484.05 19.58,480.00
             14.45,466.40 6.91,441.14 5.00,427.00 Z
           M 107.00,613.00
           C 107.00,613.00 160.00,618.83 160.00,618.83
             160.00,618.83 218.00,622.00 218.00,622.00
             218.00,622.00 234.00,623.00 234.00,623.00
             234.00,623.00 257.00,623.00 257.00,623.00
             257.00,623.00 268.00,622.02 268.00,622.02
             268.00,622.02 284.00,622.02 284.00,622.02
             284.00,622.02 297.00,621.00 297.00,621.00
             297.00,621.00 343.00,617.17 343.00,617.17
             380.00,613.47 416.82,606.70 453.00,598.12
             504.26,585.96 555.57,568.24 604.00,547.58
             604.00,547.58 650.00,525.74 650.00,525.74
             656.71,522.28 665.70,515.82 673.00,515.00
             671.46,523.12 659.97,540.31 655.19,548.00
             636.14,578.69 610.73,607.85 583.00,630.92
             478.73,717.64 330.29,736.90 207.00,681.30
             181.14,669.64 156.46,655.02 134.00,637.65
             126.69,631.99 112.08,620.10 107.00,613.00 Z" />
</svg>
